<svg width="22" height="19" viewBox="0 0 22 19" fill="none" xmlns="http://www.w3.org/2000/svg">
<path d="M20.0721 0.942535H15.9112C13.7273 0.942535 11.8894 1.57914 10.8587 2.57656C9.82802 1.57914 7.9901 0.942535 5.80625 0.942535H1.64538C0.990317 0.942535 0.456543 1.4757 0.456543 2.13134V15.8028C0.456543 16.459 0.990317 16.9916 1.64535 16.9916H5.80622C7.3915 16.9916 9.11292 17.6728 9.73049 18.3171C10.0105 18.6096 10.3974 18.7749 10.8022 18.7749H10.9211C11.3229 18.7749 11.7075 18.6102 11.9845 18.3189C12.5997 17.674 14.3229 16.9916 15.9112 16.9916H20.072C20.7277 16.9916 21.2609 16.459 21.2609 15.8028V2.13134C21.2609 1.4757 20.7277 0.942535 20.0721 0.942535ZM9.96709 16.1832C8.91082 15.5739 7.45809 15.2083 5.80622 15.2083H2.23977V2.72576H5.80625C8.34615 2.72576 9.96712 3.78202 9.96712 4.50899V16.1832H9.96709ZM19.4777 15.2083H15.9112C14.2593 15.2083 12.8066 15.5739 11.7503 16.1832V4.50899C11.7503 3.78202 13.3713 2.72576 15.9112 2.72576H19.4777V15.2083Z" fill="black"/>
</svg>
