<svg width="24" height="24" viewBox="0 0 24 24" fill="none" xmlns="http://www.w3.org/2000/svg">
<g clip-path="url(#clip0_11_87)">
<path d="M23.6804 13.0463L18.1818 7.54814V2.90909C18.1818 2.30661 17.6934 1.81818 17.0909 1.81818C16.4884 1.81818 16 2.30661 16 2.90909V5.36647L12.7709 2.13759C12.3449 1.71163 11.6542 1.71163 11.2282 2.13767L0.319466 13.0464C-0.10657 13.4724 -0.10657 14.1631 0.319466 14.5892C0.532485 14.8022 0.811612 14.9087 1.09081 14.9087C1.37001 14.9087 1.64921 14.8022 1.86216 14.5892L3.63634 12.8151V21.0909C3.63634 21.6934 4.12478 22.1818 4.72725 22.1818H9.81816H14.1818H19.2727C19.8752 22.1818 20.3636 21.6934 20.3636 21.0909V12.8152L22.1377 14.5892C22.5637 15.0152 23.2545 15.0151 23.6805 14.5892C24.1065 14.1631 24.1065 13.4724 23.6804 13.0463ZM10.9091 20V15.6364H13.0909V20H10.9091ZM18.1818 20H15.2727V14.5455C15.2727 13.943 14.7843 13.4545 14.1818 13.4545H9.81816C9.21569 13.4545 8.72725 13.943 8.72725 14.5455V20H5.81816V10.6332L11.9996 4.45185L18.1818 10.6336V20Z" fill="black" fill-opacity="0.4"/>
</g>
<defs>
<clipPath id="clip0_11_87">
<rect width="24" height="24" fill="white"/>
</clipPath>
</defs>
</svg>
