<svg width="51" height="37" viewBox="0 0 51 37" fill="none" xmlns="http://www.w3.org/2000/svg">
<path d="M50.9047 17.3299L41.1221 1.28639C40.9573 1.01639 40.6226 0.903304 40.3285 1.01822L39.1591 1.47383L38.9949 1.20448C38.7524 0.806782 38.2595 0.640086 37.8256 0.809391L25.5 5.61174L13.1744 0.809521C12.7401 0.640217 12.2476 0.806912 12.0051 1.20461L11.8409 1.47396L10.6715 1.01835C10.3771 0.903564 10.0424 1.01652 9.87797 1.28652L0.0953587 17.33C-0.00481521 17.4942 -0.0273804 17.6942 0.0336631 17.8765C0.0947065 18.0589 0.233098 18.205 0.411794 18.2758L14.3639 23.8054L12.5455 35.5041C12.5163 35.6924 12.5708 35.884 12.6947 36.0286C12.8186 36.1733 12.9995 36.2565 13.19 36.2565H14.8186C14.9504 36.2565 15.0791 36.2166 15.1878 36.142L25.5 29.0586L35.8122 36.142C35.9208 36.2166 36.0496 36.2565 36.1814 36.2565H37.8101C38.0005 36.2565 38.1815 36.1733 38.3053 36.0286C38.4292 35.884 38.4837 35.6924 38.4545 35.5041L36.6361 23.8054L50.5882 18.2758C50.7671 18.205 50.9053 18.0589 50.9664 17.8765C51.0274 17.694 51.0048 17.4941 50.9047 17.3299ZM26.0217 22.247V13.8992C26.0217 13.611 25.7881 13.3774 25.5 13.3774C25.2119 13.3774 24.9783 13.611 24.9783 13.8992V22.247L6.00927 14.7291L13.2269 2.89243L25.1511 7.53839C25.3756 7.62578 25.6244 7.62578 25.8489 7.53839L37.7731 2.89243L44.9906 14.7291L26.0217 22.247Z" fill="white"/>
<path d="M37.08 6.94726C36.9753 6.67883 36.6728 6.54565 36.4044 6.65065L28.7087 9.65065C28.4401 9.75539 28.3074 10.0579 28.4121 10.3263C28.4926 10.5325 28.6895 10.6587 28.8984 10.6587C28.9614 10.6587 29.0255 10.6472 29.0877 10.6229L36.7834 7.62291C37.0518 7.51818 37.1846 7.2157 37.08 6.94726Z" fill="white"/>
<path d="M29.9777 12.5181C29.7091 12.6229 29.5763 12.9253 29.6811 13.1938C29.7616 13.4 29.9585 13.5261 30.1673 13.5261C30.2303 13.5261 30.2945 13.5146 30.3567 13.4904L38.0524 10.4904C38.3209 10.3856 38.4537 10.0832 38.349 9.81473C38.2442 9.5463 37.9418 9.41325 37.6733 9.51812L29.9777 12.5181Z" fill="white"/>
<path d="M31.0516 16.3263C31.1321 16.5325 31.329 16.6586 31.5379 16.6586C31.6009 16.6586 31.6651 16.6472 31.7273 16.6229L39.4229 13.6229C39.6915 13.5182 39.8243 13.2157 39.7195 12.9473C39.6148 12.6787 39.312 12.5458 39.0439 12.6505L31.3482 15.6505C31.0798 15.7554 30.947 16.0577 31.0516 16.3263Z" fill="white"/>
<path d="M22.2913 9.65064L14.5957 6.65064C14.3276 6.54604 14.0249 6.67882 13.92 6.94725C13.8154 7.21569 13.9482 7.51817 14.2166 7.62291L21.9123 10.6229C21.9745 10.6472 22.0385 10.6586 22.1017 10.6586C22.3104 10.6586 22.5075 10.5325 22.5879 10.3263C22.6927 10.0577 22.5599 9.75538 22.2913 9.65064Z" fill="white"/>
<path d="M21.0225 12.5181L13.3268 9.51813C13.0586 9.41339 12.7559 9.5463 12.6512 9.81474C12.5466 10.0832 12.6793 10.3857 12.9478 10.4904L20.6434 13.4904C20.7056 13.5147 20.7697 13.5261 20.8328 13.5261C21.0415 13.5261 21.2386 13.4 21.3191 13.1938C21.4237 12.9253 21.2909 12.6229 21.0225 12.5181Z" fill="white"/>
<path d="M19.6519 15.6507L11.9562 12.6507C11.688 12.5462 11.3853 12.6787 11.2806 12.9474C11.1759 13.2158 11.3087 13.5183 11.5772 13.6231L19.2728 16.6231C19.335 16.6473 19.3991 16.6588 19.4622 16.6588C19.6709 16.6588 19.868 16.5327 19.9485 16.3264C20.0531 16.0578 19.9203 15.7554 19.6519 15.6507Z" fill="white"/>
</svg>
