<svg width="20" height="23" viewBox="0 0 20 23" fill="none" xmlns="http://www.w3.org/2000/svg">
<path d="M9.99999 22.75C11.2833 22.75 12.3333 21.7375 12.3333 20.5H7.66666C7.66666 21.7375 8.71666 22.75 9.99999 22.75ZM17 16V10.375C17 6.92125 15.0983 4.03 11.75 3.265V2.5C11.75 1.56625 10.9683 0.8125 9.99999 0.8125C9.03166 0.8125 8.24999 1.56625 8.24999 2.5V3.265C4.91332 4.03 2.99999 6.91 2.99999 10.375V16L0.666656 18.25V19.375H19.3333V18.25L17 16ZM14.6667 17.125H5.33332V10.375C5.33332 7.585 7.09499 5.3125 9.99999 5.3125C12.905 5.3125 14.6667 7.585 14.6667 10.375V17.125Z" fill="black"/>
</svg>
