<svg width="24" height="24" viewBox="0 0 24 24" fill="none" xmlns="http://www.w3.org/2000/svg">
<g clip-path="url(#clip0_10_68)">
<path d="M23.9978 0.459682C23.9928 0.419679 23.9878 0.379629 23.9728 0.339626C23.9678 0.324619 23.9628 0.304595 23.9578 0.289588C23.9328 0.234578 23.8978 0.184539 23.8578 0.139518C23.8127 0.0995152 23.7627 0.0644834 23.7077 0.0394874C23.6927 0.0344695 23.6727 0.0244805 23.6576 0.0244805C23.6176 0.0144915 23.5776 0.00445557 23.5376 0.00445557C23.5176 0.00445557 23.5026 0.00445557 23.4826 0.00445557C23.4376 0.00445557 23.3875 0.0144446 23.3425 0.0294515C23.3325 0.0344695 23.3225 0.0344695 23.3125 0.0394405H23.3075L0.301809 10.0341C0.0466911 10.1442 -0.0683465 10.4393 0.0416732 10.6944C0.0866941 10.7995 0.166747 10.8845 0.266778 10.9345L8.63067 15.3616L13.0627 23.7255C13.1478 23.8905 13.3179 23.9906 13.503 23.9956H13.523C13.7131 23.9906 13.8831 23.8705 13.9632 23.6955L23.9628 0.694775V0.689757C23.9678 0.679768 23.9678 0.669732 23.9727 0.659743C23.9878 0.614722 23.9977 0.569702 23.9977 0.519663C23.9978 0.499685 24.0028 0.47966 23.9978 0.459682ZM1.65741 10.5293L21.3015 1.99039L8.91575 14.3711L1.65741 10.5293ZM13.4679 22.3398L9.6261 15.0815L22.0068 2.69572L13.4679 22.3398Z" fill="black" fill-opacity="0.4"/>
</g>
<defs>
<clipPath id="clip0_10_68">
<rect width="24" height="24" fill="white"/>
</clipPath>
</defs>
</svg>
